<svg xmlns:rdf="http://www.w3.org/1999/02/22-rdf-syntax-ns#" xmlns="http://www.w3.org/2000/svg" height="128" width="128" version="1.1" xmlns:cc="http://creativecommons.org/ns#" xmlns:dc="http://purl.org/dc/elements/1.1/" viewBox="0 0 128 128"><g stroke-linejoin="bevel" stroke-width="1.5" transform="matrix(.80848 0 0 .86572 40.364 15.357)"><path d="m43.134 0.91033a24.244 24.244 0 0 0 -24.244 24.244 24.244 24.244 0 0 0 17.775 23.34c-21.672 3.0325-38.816 8.0213-38.816 34.496v27.803h91.053v-27.803c0-26.589-17.292-31.508-39.098-34.537a24.244 24.244 0 0 0 17.574 -23.299 24.244 24.244 0 0 0 -24.244 -24.244z" stroke="#000"/><g fill="none"><path d="m16.123 0.91064c-13.39-0.00027-24.244 10.854-24.244 24.244 0.0112 10.889 7.2811 20.435 17.775 23.34-21.672 3.0325-38.816 8.0213-38.816 34.496v27.803h91.053v-27.803c-29.575-43.319-22.41-22.85-21.524-57.836 0.001-13.39-10.854-24.245-24.244-24.244z" stroke="#000"/><path d="m28.824 103.71 28.888-17.95-28.851-17.406" stroke="#fff" stroke-width="2.4563"/><path d="m57.629 85.761h-74.879" stroke="#fff" stroke-width="2.4563"/></g></g></svg>